#Comment line ignore any data following # character 
#Hierarchical Translation and Rotation (.htr) file 
[Header]	
#Header keywords are followed by a single value 
FileType HTR		#Single word string
DataType HTRS		#Translation followed by rotation and scale data
FileVersion 1		#integer
NumSegments 23		#integer
NumFrames 4		#integer
DataFrameRate 30		#integer, data frame rate in this file
EulerRotationOrder ZYX
CalibrationUnits mm
RotationUnits Degrees
GlobalAxisofGravity Y
BoneLengthAxis Y
ScaleFactor 1.00
[SegmentNames&Hierarchy]
#CHILD	PARENT
MASTER GLOBAL
weapon MASTER
arm_lock_bottom_part1 weapon
arm_lock_bottom_part2 weapon
arm_lock_bottom_part3 weapon
arm_lock_bottom_part4 weapon
arm_lock_top_part1 weapon
arm_lock_top_part2 weapon
arm_lock_top_part3 weapon
front_lower_left_part1 weapon
front_lower_right_part1 weapon
front_top_left_part weapon
front_top_right_part1 weapon
scope_part1 weapon
scope_part2 weapon
front_lower_left_part2 front_lower_left_part1
front_lower_left_part3 front_lower_left_part2
front_lower_right_part2 front_lower_right_part1
front_lower_right_part3 front_lower_right_part2
front_top_left_part2 front_top_left_part
front_top_left_part3 front_top_left_part2
front_top_right_part2 front_top_right_part1
front_top_right_part3 front_top_right_part2
[BasePosition]
#SegmentName Tx, Ty, Tz, Rx, Ry, Rz, BoneLength
MASTER 0.000000 0.000000 0.000000 -90.000000 0.000000 0.000000 10.000000 
weapon 0.000000 0.000000 0.000000 0.000000 0.000000 0.000000 10.000000 
arm_lock_bottom_part1 0.000000 0.000000 0.000000 0.000000 0.000000 0.000000 10.000000 
arm_lock_bottom_part2 0.000000 0.000000 0.000000 0.000000 0.000000 0.000000 10.000000 
arm_lock_bottom_part3 0.000000 0.000000 0.000000 0.000000 0.000000 0.000000 10.000000 
arm_lock_bottom_part4 0.000000 0.000000 0.000000 0.000000 0.000000 0.000000 10.000000 
arm_lock_top_part1 0.000000 0.000000 0.000000 0.000000 0.000000 0.000000 10.000000 
arm_lock_top_part2 0.000000 0.000000 0.000000 0.000000 0.000000 0.000000 10.000000 
arm_lock_top_part3 0.000000 0.000000 0.000000 0.000000 0.000000 0.000000 10.000000 
front_lower_left_part1 0.000000 0.000000 0.000000 0.000000 0.000000 0.000000 10.000000 
front_lower_right_part1 0.000000 0.000000 0.000000 0.000000 0.000000 0.000000 10.000000 
front_top_left_part 0.000000 0.000000 0.000000 0.000000 0.000000 0.000000 10.000000 
front_top_right_part1 0.000000 0.000000 0.000000 0.000000 0.000000 0.000000 10.000000 
scope_part1 0.000000 0.000000 0.000000 0.000000 0.000000 0.000000 10.000000 
scope_part2 0.000000 0.000000 0.000000 0.000000 0.000000 0.000000 10.000000 
front_lower_left_part2 0.000000 0.000000 0.000000 0.000000 0.000000 0.000000 10.000000 
front_lower_left_part3 0.000000 0.000000 0.000000 0.000000 0.000000 0.000000 10.000000 
front_lower_right_part2 0.000000 0.000000 0.000000 0.000000 0.000000 0.000000 10.000000 
front_lower_right_part3 0.000000 0.000000 0.000000 0.000000 0.000000 0.000000 10.000000 
front_top_left_part2 0.000000 0.000000 0.000000 0.000000 0.000000 0.000000 10.000000 
front_top_left_part3 0.000000 0.000000 0.000000 0.000000 0.000000 0.000000 10.000000 
front_top_right_part2 0.000000 0.000000 0.000000 0.000000 0.000000 0.000000 10.000000 
front_top_right_part3 0.000000 0.000000 0.000000 0.000000 0.000000 0.000000 10.000000 
#Beginning of Data. Separated by tabs
#Fr	Tx	Ty	Tz	Rx	Ry	Rz	SF
[MASTER]
50 0.000000 -0.000019 0.000002 0.002458 -0.000000 0.000000 0.000019
51 0.000000 -0.000019 0.000002 0.002458 -0.000000 0.000000 0.000019
52 0.000000 -0.000019 0.000002 0.002458 -0.000000 0.000000 0.000019
53 0.000000 -0.000019 0.000002 0.002458 -0.000000 0.000000 0.000019
[weapon]
50 10.182457 -168.977844 -13.084106 -0.002473 -0.000000 -0.000020 169.789246
51 10.182457 -168.977844 -13.084106 -0.002473 -0.000000 -0.000020 169.789246
52 10.182457 -168.977844 -13.084106 -0.002473 -0.000000 -0.000020 169.789246
53 10.182457 -168.977844 -13.084106 -0.002473 -0.000000 -0.000020 169.789246
[arm_lock_bottom_part1]
50 -48.820000 98.566208 -83.498993 179.999985 0.000004 9.388626 138.096970
51 -48.820000 98.566208 -83.498993 179.999985 0.000004 9.388626 138.096970
52 -48.820000 98.566208 -83.498993 179.999985 0.000004 9.388626 138.096970
53 -48.820000 98.566208 -83.498993 179.999985 0.000004 9.388626 138.096970
[arm_lock_bottom_part2]
50 -49.022766 58.782005 -78.526535 -179.999985 -0.000001 6.576765 109.658440
51 -49.022766 58.782005 -78.526535 -179.999985 -0.000001 6.576765 109.658440
52 -49.022766 58.782005 -78.526535 -179.999985 -0.000001 6.576765 109.658440
53 -49.022766 58.782005 -78.526535 -179.999985 -0.000001 6.576765 109.658440
[arm_lock_bottom_part3]
50 -51.266422 -16.798210 -66.920395 -179.999985 -0.000001 4.326176 85.957924
51 -51.266422 -16.798210 -66.920395 -179.999985 -0.000001 4.326176 85.957924
52 -51.266422 -16.798210 -66.920395 -179.999985 -0.000001 4.326176 85.957924
53 -51.266422 -16.798210 -66.920395 -179.999985 -0.000001 4.326176 85.957924
[arm_lock_bottom_part4]
50 -40.078102 -93.503113 -59.330063 -179.999985 -0.000000 1.322129 117.767326
51 -40.078102 -93.503113 -59.330063 -179.999985 -0.000000 1.322129 117.767326
52 -40.078102 -93.503113 -59.330063 -179.999985 -0.000000 1.322129 117.767326
53 -40.078102 -93.503113 -59.330063 -179.999985 -0.000000 1.322129 117.767326
[arm_lock_top_part1]
50 -47.532558 61.554489 78.379364 0.000000 -0.000000 -9.999999 110.415680
51 -47.532558 61.554489 78.379364 0.000000 -0.000000 -9.999999 110.415680
52 -47.532558 61.554489 78.379364 0.000000 -0.000000 -9.999999 110.415680
53 -47.532558 61.554489 78.379364 0.000000 -0.000000 -9.999999 110.415680
[arm_lock_top_part2]
50 -45.622673 13.709908 63.393555 0.000000 -0.000000 -7.722126 79.297745
51 -45.622673 13.709908 63.393555 0.000000 -0.000000 -7.722126 79.297745
52 -45.622673 13.709908 63.393555 0.000000 -0.000000 -7.722126 79.297745
53 -45.622673 13.709908 63.393555 0.000000 -0.000000 -7.722126 79.297745
[arm_lock_top_part3]
50 -43.788544 -73.747208 72.061615 0.000000 0.000000 -4.533067 112.022163
51 -43.788544 -73.747208 72.061615 0.000000 0.000000 -4.533067 112.022163
52 -43.788544 -73.747208 72.061615 0.000000 0.000000 -4.533067 112.022163
53 -43.788544 -73.747208 72.061615 0.000000 0.000000 -4.533067 112.022163
[front_lower_left_part1]
50 -46.798534 475.071045 -43.538895 -17.980034 0.000051 32.194077 479.351898
51 -46.798534 475.071045 -43.538895 -17.980034 0.000051 32.194077 479.351898
52 -46.798534 475.071045 -43.538895 -17.980036 0.000052 32.194084 479.351898
53 -46.798534 475.071045 -43.538895 -17.980036 0.000052 32.194084 479.351898
[front_lower_right_part1]
50 26.433468 475.070984 -43.538742 -17.167982 -0.000012 -27.317896 477.793671
51 26.433468 475.070984 -43.538742 -17.167982 -0.000012 -27.317896 477.793671
52 26.433468 475.070984 -43.538742 -17.167988 -0.000012 -27.317902 477.793671
53 26.433468 475.070984 -43.538742 -17.167982 -0.000012 -27.317894 477.793671
[front_top_left_part]
50 -47.897224 494.788910 7.030945 -0.000000 0.000003 -0.000001 497.151520
51 -47.897224 494.788910 7.030945 -0.000000 0.000003 -0.000001 497.151520
52 -47.897224 494.788910 7.030945 -0.000000 0.000003 -0.000001 497.151520
53 -47.897224 494.788910 7.030945 -0.000000 0.000003 -0.000001 497.151520
[front_top_right_part1]
50 27.532139 494.788910 7.031097 0.000000 -0.000000 -0.000000 495.604218
51 27.532139 494.788910 7.031097 0.000000 -0.000000 -0.000000 495.604218
52 27.532139 494.788910 7.031097 0.000000 -0.000000 -0.000000 495.604218
53 27.532139 494.788910 7.031097 0.000000 -0.000000 -0.000000 495.604218
[scope_part1]
50 -10.754299 87.338936 156.453094 -5.033252 -12.973565 1.132818 179.502960
51 -10.754299 87.338936 156.453094 -5.034192 -13.016606 1.136737 179.502960
52 -10.754299 87.338936 156.453094 -5.035178 -13.065004 1.141056 179.502960
53 -10.754299 87.338936 156.453094 -5.036286 -13.120844 1.146115 179.502960
[scope_part2]
50 -10.754299 82.597351 156.859894 -5.542426 27.724344 -2.584704 177.603500
51 -10.754299 82.597351 156.859894 -5.544911 27.774075 -2.590076 177.603500
52 -10.754299 82.597351 156.859894 -5.547773 27.829996 -2.596359 177.603500
53 -10.754299 82.597351 156.859894 -5.550942 27.891800 -2.603040 177.603500
[front_lower_left_part2]
50 -55.193634 141.618408 32.268219 0.000000 -0.000000 12.966695 155.381317
51 -55.193634 141.618408 32.268219 0.000000 -0.000000 13.012114 155.381317
52 -55.193634 141.618408 32.268219 0.000000 -0.000000 13.061735 155.381317
53 -55.193634 141.618408 32.268219 0.000000 -0.000000 13.115092 155.381317
[front_lower_left_part3]
50 -10.943831 108.509445 -11.125030 35.930244 -7.466846 -26.052462 109.625877
51 -10.943755 108.509369 -11.124877 35.932076 -7.456692 -26.066584 109.625778
52 -10.943755 108.509445 -11.124877 35.933384 -7.449316 -26.076750 109.625854
53 -10.943831 108.509445 -11.124877 35.934212 -7.444844 -26.083006 109.625862
[front_lower_right_part2]
50 55.193668 141.618195 32.268372 0.000000 0.000000 -17.374548 155.381149
51 55.193668 141.618195 32.268372 0.000000 0.000000 -17.410034 155.381149
52 55.193668 141.618195 32.268372 0.000000 0.000000 -17.447876 155.381149
53 55.193668 141.618195 32.268372 0.000000 0.000000 -17.488216 155.381149
[front_lower_right_part3]
50 10.943831 108.509445 -11.124725 35.466290 9.678086 22.941093 109.625847
51 10.943831 108.509521 -11.124877 35.467594 9.672405 22.949131 109.625931
52 10.943831 108.509483 -11.124725 35.468456 9.668994 22.954067 109.625885
53 10.943793 108.509712 -11.124725 35.468670 9.667802 22.955683 109.626106
[front_top_left_part2]
50 -84.163910 137.398819 57.125549 9.843526 0.680266 18.370815 170.954178
51 -84.262253 137.398605 57.130890 9.843874 0.672760 18.414009 171.004227
52 -84.365860 137.398376 57.136688 9.844344 0.664672 18.460537 171.057053
53 -84.474335 137.398132 57.142639 9.844809 0.656583 18.507063 171.112366
[front_top_left_part3]
50 -28.216400 149.656738 49.959641 -26.016802 -2.404941 -63.450390 160.278717
51 -28.216438 149.656830 49.959793 -26.016893 -2.403425 -63.447361 160.278870
52 -28.216400 149.656982 49.959641 -26.017298 -2.399216 -63.438599 160.278961
53 -28.216400 149.656906 49.959717 -26.017891 -2.392249 -63.424496 160.278900
[front_top_right_part2]
50 78.503342 137.565002 52.864227 8.090649 0.933918 -21.333853 166.977631
51 78.586578 137.565155 52.859650 8.089738 0.940421 -21.379290 167.015472
52 78.674774 137.565369 52.854767 8.088867 0.947206 -21.427540 167.055618
53 78.767654 137.565536 52.849575 8.087893 0.954599 -21.479467 167.097870
[front_top_right_part3]
50 28.216408 149.656906 49.959412 -25.875830 3.693174 66.101135 160.278809
51 28.216484 149.657059 49.959717 -25.875698 3.693989 66.102859 160.279068
52 28.216433 149.656906 49.959641 -25.875856 3.692693 66.100281 160.278885
53 28.216475 149.656982 49.959641 -25.876410 3.688968 66.092583 160.278961
